<?xml version="1.0" encoding="UTF-8" standalone="no"?>
<svg
   xmlns:dc="http://purl.org/dc/elements/1.1/"
   xmlns:cc="http://creativecommons.org/ns#"
   xmlns:rdf="http://www.w3.org/1999/02/22-rdf-syntax-ns#"
   xmlns:svg="http://www.w3.org/2000/svg"
   xmlns="http://www.w3.org/2000/svg"
   xmlns:sodipodi="http://sodipodi.sourceforge.net/DTD/sodipodi-0.dtd"
   xmlns:inkscape="http://www.inkscape.org/namespaces/inkscape"
   width="100mm"
   height="100mm"
   viewBox="0 0 100 100"
   version="1.1"
   id="svg8"
   sodipodi:docname="crown1.svg"
   inkscape:version="1.0.2-2 (e86c870879, 2021-01-15)">
  <defs
     id="defs2" />
  <sodipodi:namedview
     id="base"
     pagecolor="#ffffff"
     bordercolor="#666666"
     borderopacity="1.0"
     inkscape:pageopacity="0.0"
     inkscape:pageshadow="2"
     inkscape:zoom="2.8"
     inkscape:cx="186.47746"
     inkscape:cy="164.72329"
     inkscape:document-units="mm"
     inkscape:current-layer="layer1"
     inkscape:document-rotation="0"
     showgrid="false"
     inkscape:window-width="2560"
     inkscape:window-height="1377"
     inkscape:window-x="-8"
     inkscape:window-y="-8"
     inkscape:window-maximized="1" />
  <metadata
     id="metadata5">
    <rdf:RDF>
      <cc:Work
         rdf:about="">
        <dc:format>image/svg+xml</dc:format>
        <dc:type
           rdf:resource="http://purl.org/dc/dcmitype/StillImage" />
        <dc:title></dc:title>
      </cc:Work>
    </rdf:RDF>
  </metadata>
  <g
     inkscape:label="Warstwa 1"
     inkscape:groupmode="layer"
     id="layer1">
    <path
       id="path833"
       style="fill:#000000;stroke-width:0.223684"
       d="M 65.000166,55 A 21.314742,15.234361 0 0 1 50.000048,59.411617 21.314742,15.234361 0 0 1 34.99993,55.000519 v 4.96507 a 21.314742,15.234361 0 0 0 15.000118,4.411101 21.314742,15.234361 0 0 0 15.000118,-4.411617 z" />
    <path
       id="path833-2"
       style="fill:#000000;stroke-width:0.223684"
       d="m 33.777,33.960051 1.322917,19.328169 c 3.991308,2.825803 9.382125,4.411086 15.000118,4.411099 V 33.929933 c -0.520666,0 -1.493123,8.902549 -2.546686,13.108779 -1.316112,5.254429 -2.75879,6.040305 -3.605422,5.947735 -2.079548,-0.227372 -4.112384,-2.905911 -5.42458,-5.558089 C 36.16355,42.658794 35.801306,35.393241 33.777,33.960051 Z"
       sodipodi:nodetypes="ccccsssc" />
    <path
       id="path833-2-8"
       style="fill:#000000;stroke-width:0.223684"
       d="M 66.223035,33.96005 64.900117,53.28822 C 60.90881,56.114023 55.517993,57.699306 49.9,57.699319 V 33.929933 c 0.520666,0 1.493123,8.902549 2.546685,13.108778 1.316112,5.254429 2.758789,6.040305 3.605422,5.947736 2.079548,-0.227373 4.112384,-2.905911 5.42458,-5.558089 2.359797,-4.769564 2.722041,-12.035118 4.746348,-13.468308 z"
       sodipodi:nodetypes="ccccsssc" />
    <circle
       style="opacity:1;fill:#000000;stroke-width:0.264583"
       id="path993"
       cx="50"
       cy="33.403648"
       r="1.842634" />
    <circle
       style="fill:#000000;stroke-width:0.264583"
       id="path993-5"
       cx="65.76786"
       cy="34.842632"
       r="1.842634" />
    <circle
       style="fill:#000000;stroke-width:0.264583"
       id="path993-0"
       cx="34.206848"
       cy="34.842632"
       r="1.842634" />
    <path
       id="path1024"
       style="opacity:1;fill:#000000;stroke-width:0.233826"
       d="m 65.166296,49.921502 c 3e-6,0.652345 -6.979168,-2.126116 -15.355284,-2.126116 -8.376116,0 -14.977311,2.778461 -14.977308,2.126116 C 34.833708,49.269157 41.623889,46 50,46 c 8.376111,0 15.166292,3.269157 15.166296,3.921502 z"
       sodipodi:nodetypes="sssss" />
  </g>
</svg>
