<?xml version="1.0" encoding="UTF-8" standalone="no"?>
<svg
   xmlns:dc="http://purl.org/dc/elements/1.1/"
   xmlns:cc="http://creativecommons.org/ns#"
   xmlns:rdf="http://www.w3.org/1999/02/22-rdf-syntax-ns#"
   xmlns:svg="http://www.w3.org/2000/svg"
   xmlns="http://www.w3.org/2000/svg"
   xmlns:sodipodi="http://sodipodi.sourceforge.net/DTD/sodipodi-0.dtd"
   xmlns:inkscape="http://www.inkscape.org/namespaces/inkscape"
   width="100mm"
   height="100mm"
   viewBox="0 0 100 100"
   version="1.1"
   id="svg8"
   sodipodi:docname="crown2.svg"
   inkscape:version="1.0.2-2 (e86c870879, 2021-01-15)">
  <defs
     id="defs2" />
  <sodipodi:namedview
     id="base"
     pagecolor="#ffffff"
     bordercolor="#666666"
     borderopacity="1.0"
     inkscape:pageopacity="0.0"
     inkscape:pageshadow="2"
     inkscape:zoom="2.8"
     inkscape:cx="186.47746"
     inkscape:cy="179.009"
     inkscape:document-units="mm"
     inkscape:current-layer="layer1"
     inkscape:document-rotation="0"
     showgrid="false"
     inkscape:window-width="2560"
     inkscape:window-height="1377"
     inkscape:window-x="-8"
     inkscape:window-y="-8"
     inkscape:window-maximized="1" />
  <metadata
     id="metadata5">
    <rdf:RDF>
      <cc:Work
         rdf:about="">
        <dc:format>image/svg+xml</dc:format>
        <dc:type
           rdf:resource="http://purl.org/dc/dcmitype/StillImage" />
        <dc:title></dc:title>
      </cc:Work>
    </rdf:RDF>
  </metadata>
  <g
     inkscape:label="Warstwa 1"
     inkscape:groupmode="layer"
     id="layer1">
    <path
       id="path833"
       style="fill:#000000;stroke-width:0.223684"
       d="M 65.000166,55 A 21.314742,15.234361 0 0 1 50.000048,59.411617 21.314742,15.234361 0 0 1 34.99993,55.000519 v 4.96507 a 21.314742,15.234361 0 0 0 15.000118,4.411101 21.314742,15.234361 0 0 0 15.000118,-4.411617 z" />
    <path
       id="path833-2"
       style="fill:#000000;stroke-width:0.223684"
       d="m 28.012863,37.739813 7.087054,15.548407 c 3.991308,2.825803 9.382125,4.411086 15.000118,4.411099 V 33.929933 c -0.520666,0 -1.493123,8.902549 -2.546686,13.108779 -1.316112,5.254429 -2.75879,6.040305 -3.605422,5.947735 -2.079548,-0.227372 -7.041699,-2.716923 -8.353895,-5.369101 -2.359797,-4.769564 -5.556863,-8.444343 -7.581169,-9.877533 z"
       sodipodi:nodetypes="ccccsssc" />
    <path
       id="path833-2-8"
       style="fill:#000000;stroke-width:0.223684"
       d="M 72.17616,36.794871 64.900117,53.28822 C 60.90881,56.114023 55.517993,57.699306 49.9,57.699319 V 33.929933 c 0.520666,0 1.493123,8.902549 2.546685,13.108778 1.316112,5.254429 2.758789,6.040305 3.605422,5.947736 2.079548,-0.227373 7.230688,-2.811417 8.542884,-5.463595 2.359797,-4.769564 5.556862,-9.294791 7.581169,-10.727981 z"
       sodipodi:nodetypes="ccccsssc" />
    <circle
       style="opacity:1;fill:#000000;stroke-width:0.264583"
       id="path993"
       cx="50"
       cy="33.403648"
       r="1.842634" />
    <circle
       style="fill:#000000;stroke-width:0.264583"
       id="path993-5"
       cx="71.626488"
       cy="36.692635"
       r="1.842634" />
    <circle
       style="fill:#000000;stroke-width:0.264583"
       id="path993-0"
       cx="28.348217"
       cy="37.693077"
       r="1.842634" />
    <path
       id="path1024"
       style="opacity:1;fill:#000000;stroke-width:0.233826"
       d="m 65.166296,49.921502 c 3e-6,0.652345 -6.979168,-2.126116 -15.355284,-2.126116 -8.376116,0 -14.977311,2.778461 -14.977308,2.126116 C 34.833708,49.269157 41.623889,46 50,46 c 8.376111,0 15.166292,3.269157 15.166296,3.921502 z"
       sodipodi:nodetypes="sssss" />
    <path
       id="path1030"
       style="opacity:1;fill:#000000;stroke-width:0.264583"
       d="m 53.02381,39.404015 c -10e-7,0.626251 -1.542795,1.606398 -3.212798,1.606398 -1.670004,0 -2.834821,-0.980147 -2.834822,-1.606398 -1e-6,-0.626252 1.164817,0.188988 2.834822,0.188988 1.670005,0 3.212799,-0.81524 3.212798,-0.188988 z"
       sodipodi:nodetypes="sssss" />
    <path
       id="path1030-3"
       style="fill:#000000;stroke-width:0.264583"
       d="m 33.725521,40.842468 c 0.236094,0.580043 -0.823351,2.069499 -2.370132,2.699086 -1.546781,0.629587 -2.995164,0.160894 -3.23126,-0.419148 -0.236097,-0.580044 1.150118,-0.26409 2.6969,-0.893678 1.546783,-0.629587 2.668397,-1.966304 2.904492,-1.38626 z"
       sodipodi:nodetypes="sssss" />
    <path
       id="path1030-9"
       style="fill:#000000;stroke-width:0.264583"
       d="m 71.839521,42.996268 c -0.247985,0.57506 -2.052788,0.864172 -3.586283,0.202883 -1.533496,-0.661289 -2.214981,-2.022562 -1.966998,-2.597623 0.247982,-0.575062 0.994768,0.634785 2.528265,1.296074 1.533497,0.66129 3.273,0.523605 3.025016,1.098666 z"
       sodipodi:nodetypes="sssss" />
    <circle
       style="fill:#000000;stroke-width:0.189957"
       id="path993-5-1"
       cx="57.783104"
       cy="47.766743"
       r="1.3229167" />
    <circle
       style="fill:#000000;stroke-width:0.189957"
       id="path993-5-1-7"
       cx="41.199406"
       cy="47.908482"
       r="1.3229167" />
  </g>
</svg>
